<?xml version="1.0" standalone="no"?>
<!DOCTYPE svg PUBLIC "-//W3C//DTD SVG 20010904//EN"
 "http://www.w3.org/TR/2001/REC-SVG-20010904/DTD/svg10.dtd">
<svg version="1.0" xmlns="http://www.w3.org/2000/svg"
 width="1000.000000pt" height="1000.000000pt" viewBox="0 0 1000.000000 1000.000000"
 preserveAspectRatio="xMidYMid meet">

<g transform="translate(0.000000,1000.000000) scale(0.100000,-0.100000)"
fill="#000000" stroke="none">
<path d="M4535 6887 c-253 -100 -466 -186 -472 -190 -7 -4 -39 -48 -72 -96
-59 -89 -59 -89 -85 -76 -15 8 -24 10 -21 4 4 -5 -10 0 -30 11 -20 11 -34 16
-31 11 10 -15 -22 -6 -42 12 -10 9 -22 14 -26 10 -3 -4 -15 -8 -25 -10 -10 -1
-272 -101 -582 -221 -310 -121 -581 -225 -602 -233 l-38 -13 4 -1156 3 -1155
27 -122 c59 -265 167 -527 307 -743 339 -520 952 -976 1730 -1285 128 -51 402
-145 422 -145 5 0 8 164 8 364 l0 365 97 31 c545 177 1053 492 1340 831 195
231 332 512 377 774 26 147 28 144 -66 71 -177 -136 -408 -266 -598 -336 -79
-29 -314 -100 -332 -100 -4 0 -8 222 -8 493 l0 493 108 42 c294 114 571 393
589 594 10 103 -57 199 -158 228 -19 6 -152 10 -297 10 -324 0 -344 -6 -398
-112 -55 -109 -151 -518 -310 -1318 -143 -728 -283 -1379 -304 -1420 -10 -20
-26 -42 -34 -49 -13 -11 -16 -35 -16 -117 0 -80 -3 -104 -13 -104 -22 0 -232
74 -352 124 l-110 46 -253 0 c-237 0 -253 1 -248 18 21 74 57 224 55 226 -2 2
-39 26 -81 55 -96 64 -229 174 -328 272 -293 288 -459 625 -500 1011 -5 52
-10 430 -10 864 l0 771 298 116 c163 63 572 222 907 352 336 130 616 239 623
242 9 4 12 -32 12 -161 l0 -166 428 0 c357 1 423 3 402 14 -14 7 -204 82 -422
167 l-398 154 0 368 c0 202 -3 367 -7 366 -5 0 -215 -83 -468 -182z"/>
</g>
</svg>
